<svg width="98.8" height="87.88" viewBox="0 0 98.8 87.88" xmlns="http://www.w3.org/2000/svg"><g id="svgGroup" stroke-linecap="round" fill-rule="evenodd" font-size="9pt" stroke="#777777" stroke-width="1mm" fill="#40bcff" style="stroke:#777777;stroke-width:1mm;fill:#40bcff"><path d="M 90.1 35.08 L 90.1 36.08 Q 90.4 35.98 90.9 36.28 Q 91.4 36.68 91.5 36.08 Q 93.7 37.98 95.55 40.13 Q 97.4 42.28 98.8 44.88 Q 98.7 46.38 98.3 47.58 Q 97.9 48.78 96.8 49.58 Q 95.6 50.38 94.35 50.73 Q 93.1 51.08 91.7 51.08 Q 89.1 51.08 86.35 50.03 Q 83.6 48.98 81.05 47.58 Q 78.5 46.18 76.5 45.18 Q 76.1 43.48 74.3 41.53 Q 72.5 39.58 71.2 37.78 Q 69.1 39.58 68.35 42.28 Q 67.6 44.98 67.3 48.08 Q 67 51.18 66.1 54.38 Q 65.4 54.68 65.1 55.38 Q 62.9 55.18 59.85 55.48 Q 56.8 55.78 53.5 56.18 Q 48.9 56.78 44.65 57.13 Q 40.4 57.48 38 56.58 Q 37.3 57.28 37.15 58.73 Q 37 60.18 36.3 60.98 Q 39.4 61.98 43.6 61.88 Q 47.8 61.78 52 61.38 Q 54.1 61.28 56.15 61.13 Q 58.2 60.98 59.9 60.98 Q 60 60.68 60.5 60.38 Q 60.8 60.18 61 59.98 Q 61.2 59.78 61.2 59.28 Q 65.6 58.48 68.6 59.93 Q 71.6 61.38 74.3 63.18 Q 75.2 63.88 76.2 64.53 Q 77.2 65.18 78.2 65.68 Q 77.5 67.58 76 68.18 Q 74.5 68.78 73.05 69.38 Q 71.6 69.98 70.8 72.08 Q 70.4 73.38 70.05 75.33 Q 69.7 77.28 69.2 79.08 Q 68.8 80.58 68.55 82.38 Q 68.3 84.18 68.8 85.28 Q 66.5 85.78 63.6 85.83 Q 60.7 85.88 57.6 85.78 Q 53 85.78 48.4 85.98 Q 43.8 86.18 40.3 87.88 Q 38.4 86.58 36.9 84.83 Q 35.4 83.08 34 81.18 Q 34.1 79.28 33.9 77.03 Q 33.7 74.78 33.5 72.48 Q 33.3 71.28 33.2 70.08 L 33 67.68 Q 31.3 69.68 29.4 72.48 Q 27.5 75.28 25.45 77.93 Q 23.4 80.58 21.1 82.48 Q 19.7 83.58 18.05 84.68 Q 16.4 85.78 14.7 85.93 Q 13 86.08 11.4 84.48 Q 11.9 83.08 12.45 82.88 Q 13 82.68 13.45 82.58 Q 13.9 82.48 14.1 81.48 Q 15.2 81.58 15.7 81.23 Q 16.2 80.88 16.4 80.48 Q 16.4 79.98 15.9 80.08 L 15.4 80.18 Q 17.8 77.68 19.85 75.28 Q 21.9 72.88 23.7 70.78 Q 23.3 70.38 22.6 71.28 Q 22.4 71.68 22.05 72.03 Q 21.7 72.38 21.3 72.38 L 21.7 71.78 Q 21.9 71.48 22 71.18 Q 22.8 69.98 23.65 68.98 Q 24.5 67.98 26 68.08 Q 26.1 67.28 25.65 67.33 L 25.2 67.38 Q 27 63.48 29.3 58.23 Q 31.6 52.98 32.3 47.58 Q 32.8 44.28 32.35 41.08 Q 31.9 37.88 30 35.08 Q 24.9 40.88 19.05 45.93 Q 13.2 50.98 5.8 54.58 Q 4.3 54.38 2.5 53.83 Q 0.7 53.28 0 51.68 Q 3.2 50.18 5.7 48.18 Q 8.2 46.18 10.55 44.08 Q 12.9 41.98 15.7 40.18 Q 16 39.68 15.7 39.58 L 15.4 39.48 Q 17.2 38.28 18.3 36.98 Q 19.4 35.68 20.6 34.48 Q 21.8 33.28 23.7 32.38 Q 23.6 32.08 23.15 32.08 L 22.7 32.08 Q 23.7 31.58 24 30.68 Q 24.3 29.78 25 29.08 Q 25.2 28.88 25.7 28.88 Q 26.2 28.88 26.4 28.68 Q 26.8 28.18 27.05 27.53 Q 27.3 26.88 27.7 26.38 Q 29.1 24.78 30.9 23.33 Q 32.7 21.88 34 20.28 Q 34.1 20.18 34 19.48 L 34 18.98 Q 34.4 18.28 35.1 17.33 Q 35.8 16.38 36.7 15.28 Q 38.6 12.98 40.5 10.33 Q 42.4 7.68 42.3 5.88 Q 42.3 5.18 41.95 4.63 Q 41.6 4.08 41.2 3.58 Q 40.6 2.88 40.2 2.08 Q 39.8 1.28 40 0.18 Q 41.1 -0.12 42 0.08 Q 42.9 0.28 43.7 0.48 Q 44.4 0.68 45 0.83 Q 45.6 0.98 46.3 0.88 Q 46.6 0.98 47.2 1.58 Q 47.6 1.98 48.1 2.28 Q 48.6 2.58 49 2.18 Q 49.7 2.88 50 3.63 Q 50.3 4.38 50.9 5.18 Q 52.1 6.78 54.05 7.83 Q 56 8.88 57.6 10.28 Q 60.2 12.58 62.8 15.43 Q 65.4 18.28 68.1 21.03 Q 70.8 23.78 73.5 25.68 Q 76.1 27.48 79.05 28.83 Q 82 30.18 84.2 32.38 Q 85.1 32.08 85.9 32.63 Q 86.7 33.18 87.5 33.78 Q 88.2 34.38 88.8 34.78 Q 89.4 35.18 90.1 35.08 Z M 61.6 67.08 Q 59.1 66.48 55.05 66.53 Q 51 66.58 46.9 67.03 Q 42.8 67.48 40.3 68.08 Q 40.6 71.88 40.75 74.88 Q 40.9 77.88 42 80.78 Q 46.7 80.88 50.25 80.73 Q 53.8 80.58 57.6 80.28 Q 58.1 80.28 58.6 80.23 Q 59.1 80.18 59.6 80.18 Q 60.9 77.78 61.3 73.93 Q 61.7 70.08 61.6 67.08 Z M 64.6 28.38 L 61.2 23.78 Q 58.8 20.58 56.1 17.33 Q 53.4 14.08 50.3 11.58 Q 49.9 12.28 49.25 12.98 Q 48.6 13.68 47.8 14.38 Q 46.6 15.58 45.65 16.78 Q 44.7 17.98 45 18.98 Q 47.2 18.48 49.05 19.28 Q 50.9 20.08 51.9 21.68 Q 52.7 22.98 52.7 24.78 Q 52.7 26.58 51.3 28.38 Q 53.2 28.58 54.7 28.28 Q 56.2 27.98 57.5 27.68 Q 59.4 27.18 61.05 27.03 Q 62.7 26.88 64.6 28.38 Z M 60.2 40.78 Q 59.8 39.68 59.85 38.53 Q 59.9 37.38 60 36.38 Q 60.1 35.48 60.1 34.78 Q 60.1 34.08 59.9 33.48 Q 57.2 33.48 54.4 33.68 Q 51.6 33.88 49 34.18 Q 46.1 34.48 43.55 34.73 Q 41 34.98 39 34.78 Q 38.9 35.48 39.1 36.18 Q 39.3 36.88 39.6 37.58 Q 39.9 38.38 40.1 39.18 Q 40.3 39.98 40 40.78 Q 41.7 41.18 43.7 40.88 Q 45.7 40.58 47.8 40.18 Q 49.9 39.78 52 39.48 Q 54.1 39.18 55.9 39.48 Q 56.4 39.58 56.85 39.83 Q 57.3 40.08 57.7 40.28 Q 58.2 40.68 58.8 40.93 Q 59.4 41.18 60.2 40.78 Z M 59.6 44.18 Q 54.4 44.28 49.1 45.03 Q 43.8 45.78 40 46.58 Q 39.6 47.48 39.3 48.98 Q 39 50.48 39 51.58 Q 41.3 51.68 43.55 51.43 Q 45.8 51.18 48 50.98 Q 50.7 50.58 53.2 50.38 Q 55.7 50.18 57.9 50.58 Q 58.8 49.48 59.15 47.78 Q 59.5 46.08 59.6 44.18 Z M 47 29.08 L 47 28.38 Q 47 27.38 46.95 26.38 Q 46.9 25.38 46.6 24.68 Q 45.3 23.88 43.9 23.23 Q 42.5 22.58 41.3 21.68 Q 39.7 23.98 37.7 25.93 Q 35.7 27.88 34 30.08 L 40.4 29.48 Q 43.6 29.18 47 29.08 Z" vector-effect="non-scaling-stroke"/></g></svg>