<?xml version="1.0" encoding="UTF-8"?>
<svg xmlns="http://www.w3.org/2000/svg" xmlns:xlink="http://www.w3.org/1999/xlink" width="20px" height="20px" viewBox="0 0 20 20" version="1.1">
<g id="surface1">
<path style=" stroke:none;fill-rule:nonzero;fill:rgb(0%,0%,0%);fill-opacity:1;" d="M 9.007812 0.546875 C 7.40625 0.742188 6.023438 1.234375 4.773438 2.070312 C 2.804688 3.367188 1.382812 5.359375 0.804688 7.632812 C 0.578125 8.515625 0.53125 8.921875 0.53125 10 C 0.53125 11.070312 0.578125 11.484375 0.804688 12.367188 C 1.65625 15.703125 4.296875 18.34375 7.632812 19.195312 C 8.515625 19.421875 8.929688 19.46875 10 19.46875 C 11.078125 19.46875 11.484375 19.421875 12.367188 19.195312 C 15.046875 18.515625 17.3125 16.671875 18.515625 14.195312 C 18.96875 13.273438 19.242188 12.398438 19.398438 11.40625 C 19.5 10.765625 19.5 9.226562 19.40625 8.59375 C 18.90625 5.46875 16.976562 2.835938 14.203125 1.484375 C 13.289062 1.039062 12.398438 0.75 11.429688 0.601562 C 10.9375 0.523438 9.445312 0.492188 9.007812 0.546875 Z M 10.03125 9.96875 C 10.039062 16.4375 10.039062 17.070312 9.976562 17.09375 C 9.898438 17.125 8.960938 17.039062 8.59375 16.96875 C 7.125 16.664062 5.929688 16.007812 4.859375 14.914062 C 3.898438 13.921875 3.242188 12.632812 2.992188 11.25 C 2.898438 10.75 2.867188 9.679688 2.929688 9.1875 C 3.234375 6.703125 4.726562 4.625 6.976562 3.546875 C 7.828125 3.140625 9.0625 2.84375 9.828125 2.867188 L 10.023438 2.867188 Z M 10.03125 9.96875 "/>
</g>
</svg>
